<?xml version="1.0" encoding="utf-8"?>
<!-- Generator: Adobe Illustrator 23.1.0, SVG Export Plug-In . SVG Version: 6.00 Build 0)  -->
<svg version="1.1" id="Layer_1" xmlns="http://www.w3.org/2000/svg" xmlns:xlink="http://www.w3.org/1999/xlink" x="0px" y="0px"
	 viewBox="0 0 104 104" style="enable-background:new 0 0 104 104;" xml:space="preserve">
<style type="text/css">
	.st0{fill:#F7E800;}
</style>
<title>_</title>
<path class="st0" d="M52,17.5c-11.4,0-20.7,9.3-20.7,20.7c0,0,0,0,0,0C31.3,49.7,52,86.5,52,86.5s20.7-36.8,20.7-48.3
	C72.7,26.8,63.4,17.5,52,17.5C52,17.5,52,17.5,52,17.5z M52,52.5c-7.9,0-14.3-6.4-14.3-14.3c0-7.9,6.4-14.3,14.3-14.3
	s14.3,6.4,14.3,14.3c0,0,0,0,0,0C66.3,46.1,59.9,52.5,52,52.5L52,52.5z"/>
</svg>
