<?xml version="1.0" encoding="utf-8"?>
<!-- Generator: Adobe Illustrator 23.1.0, SVG Export Plug-In . SVG Version: 6.00 Build 0)  -->
<svg version="1.1" id="Шар_1" xmlns="http://www.w3.org/2000/svg" xmlns:xlink="http://www.w3.org/1999/xlink" x="0px" y="0px"
	 viewBox="0 0 2998.2 385.2" style="enable-background:new 0 0 2998.2 385.2;" xml:space="preserve">
<style type="text/css">
	.st0{fill:#FFFFFF;}
</style>
<g>
	<path class="st0" d="M2394.4,175.2c0,105.1,155.6,105.1,155.6,0C2550,70.3,2394.4,70.3,2394.4,175.2z M2434.3,175.2
		c0-54.6,76.1-54.6,76.1,0C2510.3,230.2,2434.3,230.2,2434.3,175.2z"/>
	<path class="st0" d="M2596.3,68.6c0-12.4-9.7-19.9-21.7-19.9c-11.9,0-21.5,7.6-21.5,19.9c0,11.9,9.5,19.7,21.5,19.7
		S2596.3,80.5,2596.3,68.6z"/>
	<path class="st0" d="M1310.1,217c-23-0.2-37.7-19.7-37.7-42c0-25.1,15-42.3,37.7-42.3c16.3,0,27.7,6.9,33.2,22.3
		c13.2,0,24.9,0,38.1,0c-5.8-40.5-39.9-57.6-71.3-57.6c-38.6,0-77.6,26-77.8,77.6c0.2,51.6,39.2,77.6,77.8,77.4
		c32.3,0,66.3-16.9,71.9-59.8c-13.2,0-25.1,0-38.1,0C1339.7,208.8,1326.5,217,1310.1,217z"/>
	<path class="st0" d="M2632.1,48.6c-11.9,0-21.5,7.6-21.5,19.9c0,11.9,9.5,19.7,21.5,19.7c12.1,0,21.5-7.8,21.5-19.7
		C2653.5,56.2,2644.2,48.6,2632.1,48.6z"/>
	<polygon class="st0" points="1464.7,155 1463.6,155 1435,99.1 1391.7,99.1 1391.7,105 1442.8,197.7 1419,246.7 1419,250.8 
		1460.8,250.8 1532.7,105 1532.7,99.1 1490.7,99.1 	"/>
	<polygon class="st0" points="1037.5,216.8 1018.2,216.8 1018.2,132.9 1036,132.9 1036,99.1 962.1,99.1 962.1,132.9 979.9,132.9 
		979.9,216.8 960.6,216.8 960.6,250.8 1037.5,250.8 	"/>
	<path class="st0" d="M944.2,202.9c0-13.4-5.9-24.7-18.2-31c7.4-6.1,11.9-17.1,11.9-26.2c0-26.2-21-46.6-47.2-46.6h-64.8v151.7H897
		C927.9,250.8,944,229.4,944.2,202.9z M863.4,133.8h24.3c15.6,0,15.6,24.5,0.2,24.5h-24.5V133.8z M863.4,216.4v-25.8h30.8
		c15.6,0,15.8,25.8,0.2,25.8H863.4z"/>
	<path class="st0" d="M1084.9,250.8c12.8,0,25.6,0,38.4,0v-117h37.1c0-11.7,0-23.2,0-34.7h-112.7c0,11.5,0,23,0,34.7h37.3v117
		H1084.9z"/>
	<path class="st0" d="M2038.2,133.8h55c0-13,0-21.9,0-34.7c-31,0-63.5,0-94.5,0v151.7c13.2,0,26.4,0,39.4,0L2038.2,133.8
		L2038.2,133.8z"/>
	<polygon class="st0" points="2622.3,132.9 2640.1,132.9 2640.1,99.1 2566.2,99.1 2566.2,132.9 2584,132.9 2584,216.8 2564.7,216.8 
		2564.7,250.8 2641.6,250.8 2641.6,216.8 2622.3,216.8 	"/>
	<path class="st0" d="M2158.3,189.7h51.6c0-11.5,0-23,0-34.5h-51.6v-21.5c22.3,0,33.6,0,56.1,0c0-11.7,0-23.4,0-34.7
		c-35.5,0-59.6,0-94.7,0c0,50.3,0,101,0,151.7c35.1,0,61.1,0,96.6,0c0-11.5,0-23.2,0-34.5c-22.8,0-35.8,0-58.1,0
		C2158.3,207.2,2158.3,198.6,2158.3,189.7z"/>
	<path class="st0" d="M1753.3,189.7h51.6c0-11.5,0-23,0-34.5h-51.6v-21.5c22.3,0,33.6,0,56.1,0c0-11.7,0-23.4,0-34.7
		c-35.5,0-59.6,0-94.7,0c0,50.3,0,101,0,151.7c35.1,0,61.1,0,96.6,0c0-11.5,0-23.2,0-34.5c-22.7,0-35.7,0-58.1,0
		C1753.3,207.2,1753.3,198.6,1753.3,189.7z"/>
	<path class="st0" d="M798.2,192.5c-13.2,0-25.1,0-38.1,0c-4.1,16.3-17.3,24.5-33.8,24.5c-23-0.2-37.7-19.7-37.7-42
		c0-25.1,15-42.3,37.7-42.3c16.3,0,27.7,6.9,33.2,22.3c13.2,0,24.9,0,38.1,0c-5.9-40.5-39.9-57.6-71.3-57.6
		c-38.6,0-77.6,26-77.8,77.6c0.2,51.6,39.2,77.6,77.8,77.4C758.5,252.3,792.6,235.4,798.2,192.5z"/>
	<path class="st0" d="M2792.9,181.8c9-7.4,14.5-20.9,14.5-31.9c0-31.9-25.6-56.8-57.6-56.8h-78.9v184.8h86.6
		c37.8,0,57.3-26.1,57.6-58.3C2815,203.2,2807.9,189.4,2792.9,181.8z M2716.6,135.3h29.6c19,0,19,29.8,0.3,29.8h-29.8v-29.8H2716.6z
		 M2754.3,235.9h-37.8v-31.4h37.5C2773.1,204.5,2773.3,235.9,2754.3,235.9z"/>
	<path class="st0" d="M1912.9,99.1c-22.3,0-44.9,0-66.7,0c0,50.7,0,101.2,0,151.7c12.8,0,25.8,0,38.8,0V212h28
		C1985.5,212,1985.5,99.3,1912.9,99.1z M1912.7,177.1H1885c0-12.4,0-31,0-43.3c8.9,0,18.6-0.2,27.7,0
		C1935.3,134,1934,177.1,1912.7,177.1z"/>
	<path class="st0" d="M426.5,217c-23-0.2-37.7-19.7-37.7-42c0-25.1,15-42.3,37.7-42.3c16.2,0,27.7,6.9,33.2,22.3
		c13.2,0,24.9,0,38.1,0c-5.9-40.5-39.9-57.6-71.3-57.6c-38.6,0-77.6,26-77.8,77.6c0.2,51.6,39.2,77.6,77.8,77.4
		c32.3,0,66.3-16.9,71.9-59.8c-13.2,0-25.1,0-38.1,0C456.2,208.8,442.9,217,426.5,217z"/>
	<path class="st0" d="M305.2,181.8c9-7.4,14.5-20.9,14.5-31.9c0-31.9-25.6-56.8-57.6-56.8h-78.9v184.8h86.6
		c37.8,0,57.3-26.1,57.6-58.3C327.3,203.2,320.2,189.4,305.2,181.8z M228.9,135.3h29.6c19,0,19,29.8,0.3,29.8H229L228.9,135.3
		L228.9,135.3z M266.6,235.9h-37.8v-31.4h37.5C285.4,204.5,285.6,235.9,266.6,235.9z"/>
	<path class="st0" d="M564.7,189.7h51.6c0-11.5,0-23,0-34.5h-51.6v-21.5c22.3,0,33.6,0,56.1,0c0-11.7,0-23.4,0-34.7
		c-35.5,0-59.6,0-94.7,0c0,50.3,0,101,0,151.7c35.1,0,61.1,0,96.6,0c0-11.5,0-23.2,0-34.5c-22.8,0-35.8,0-58.1,0
		C564.7,207.2,564.7,198.6,564.7,189.7z"/>
	<path class="st0" d="M1678,250.8V99.1c-99.7,0-113.1,0-126.1,0v151.7c13,0,26.4,0,39.7,0V134.9h46.8v115.9
		C1651.6,250.8,1664.8,250.8,1678,250.8z"/>
	<path class="st0" d="M2317.9,99.1c-22.3,0-44.9,0-66.7,0c0,50.7,0,101.2,0,151.7c12.8,0,25.8,0,38.8,0V212h28
		C2390.5,212,2390.5,99.3,2317.9,99.1z M2317.7,177.1H2290c0-12.4,0-31,0-43.3c8.9,0,18.6-0.2,27.7,0
		C2340.2,134,2338.9,177.1,2317.7,177.1z"/>
	<path class="st0" d="M944,314.5h18.1c0-4,0-8.1,0-12.1H944v-7.6c7.8,0,11.8,0,19.7,0c0-4.1,0-8.2,0-12.2c-12.5,0-21,0-33.3,0
		c0,17.7,0,35.6,0,53.5c12.3,0,21.5,0,34,0c0-4,0-8.2,0-12.1c-8,0-12.6,0-20.4,0C944,320.7,944,317.7,944,314.5z"/>
	<path class="st0" d="M809.7,302h-16.5v-19.4c-4.7,0-9.4,0-13.9,0v53.5c4.6,0,9.3,0,13.9,0v-21.5h16.5v21.5c4.6,0,9.3,0,13.9,0
		v-53.5c-4.6,0-9.3,0-13.9,0V302z"/>
	<path class="st0" d="M857.5,294.8h13.1V336c4.5,0,9,0,13.5,0v-41.2h13c0-4.1,0-8.2,0-12.2h-39.6
		C857.5,286.6,857.5,290.7,857.5,294.8z"/>
	<polygon class="st0" points="740.7,294.5 746.9,294.5 746.9,282.6 720.9,282.6 720.9,294.5 727.2,294.5 727.2,324.1 720.4,324.1 
		720.4,336.1 747.4,336.1 747.4,324.1 740.7,324.1 	"/>
	<path class="st0" d="M1424.6,308.3c2.6-2.1,4.2-6,4.2-9.2c0-9.2-7.4-16.4-16.6-16.4h-22.8v53.5h25c10.9,0,16.5-7.6,16.6-16.9
		C1431,314.4,1429,310.5,1424.6,308.3z M1402.6,294.8h8.5c5.5,0,5.5,8.6,0.1,8.6h-8.6V294.8z M1413.5,323.9h-10.9v-9.1h10.8
		C1418.9,314.8,1419,323.9,1413.5,323.9z"/>
	<path class="st0" d="M1768.2,308.8v-26.2c-4.6,0-9.3,0-13.9,0v53.5h4.9l26.9-26.3v26.3c4.7,0,9.5,0,14.1,0v-53.7h-5L1768.2,308.8z"
		/>
	<path class="st0" d="M2246.5,281.9l-24,52.2v2h13.3l3.1-6.7h21l3.1,6.7h13.3v-2l-24.1-52.2H2246.5z M2243.3,317.7l6-14.1l6.2,14.1
		H2243.3z"/>
	<path class="st0" d="M1864.6,324.1c-8.1-0.1-13.3-6.9-13.3-14.8c0-8.9,5.3-14.9,13.3-14.9c5.7,0,9.8,2.4,11.7,7.9
		c4.6,0,8.8,0,13.4,0c-2.1-14.3-14-20.3-25.1-20.3c-13.6,0-27.3,9.2-27.4,27.3c0.1,18.2,13.8,27.3,27.4,27.3
		c11.4,0,23.3-6,25.3-21.1c-4.6,0-8.8,0-13.4,0C1875,321.2,1870.4,324.1,1864.6,324.1z"/>
	<path class="st0" d="M1711.1,308.3c2.6-2.1,4.2-6,4.2-9.2c0-9.2-7.4-16.4-16.6-16.4h-22.8v53.5h25c10.9,0,16.5-7.6,16.6-16.9
		C1717.5,314.4,1715.5,310.5,1711.1,308.3z M1689.1,294.8h8.5c5.5,0,5.5,8.6,0.1,8.6h-8.6V294.8z M1700,323.9h-10.9v-9.1h10.8
		C1705.4,314.8,1705.5,323.9,1700,323.9z"/>
	<path class="st0" d="M1921.4,294.8h13.1V336c4.5,0,9,0,13.5,0v-41.2h13c0-4.1,0-8.2,0-12.2h-39.6
		C1921.4,286.6,1921.4,290.7,1921.4,294.8z"/>
	<path class="st0" d="M2192.8,282.6c-4.7,0-9.4,0-14,0c0,10,0.7,20.2-13,20.2h-1v-20.2c-4.7,0-9.3,0-13.9,0v53.5c4.6,0,9.1,0,13.9,0
		v-20.4c1.8,0,3.4,0,5.3-0.3l11.7,20.7h15.2V334l-14.5-23.5C2193.1,303.6,2192.8,293.5,2192.8,282.6z"/>
	<path class="st0" d="M1024.2,282.6c-7.8,0-15.8,0-23.5,0c0,17.9,0,35.7,0,53.5c4.5,0,9.1,0,13.6,0v-13.7h9.8
		C1049.7,322.4,1049.7,282.7,1024.2,282.6z M1024.1,310.1h-9.8c0-4.4,0-10.9,0-15.3c3.1,0,6.6-0.1,9.8,0
		C1032,294.9,1031.6,310.1,1024.1,310.1z"/>
	<path class="st0" d="M2011.6,281.9l-24,52.2v2h13.3l3.1-6.7h21l3.1,6.7h13.3v-2l-24.1-52.2H2011.6z M2008.5,317.7l6-14.1l6.2,14.1
		H2008.5z"/>
	<path class="st0" d="M1230.3,294.8h13.1V336c4.5,0,9,0,13.5,0v-41.2h13c0-4.1,0-8.2,0-12.2h-39.6
		C1230.3,286.6,1230.3,290.7,1230.3,294.8z"/>
	<path class="st0" d="M1199.2,282.6c-4.7,0-9.4,0-14,0c0,10,0.7,20.2-13,20.2h-1v-20.2c-4.7,0-9.3,0-13.9,0v53.5c4.6,0,9.1,0,13.9,0
		v-20.4c1.8,0,3.4,0,5.3-0.3l11.7,20.7h15.2V334l-14.5-23.5C1199.5,303.6,1199.2,293.5,1199.2,282.6z"/>
	<path class="st0" d="M1096.3,281.9l-24,52.2v2h13.3l3.1-6.7h21l3.1,6.7h13.3v-2l-24.1-52.2H1096.3z M1093.2,317.7l6-14.1l6.2,14.1
		H1093.2z"/>
	<path class="st0" d="M2107.8,308.3c2.6-2.1,4.2-6,4.2-9.2c0-9.2-7.4-16.4-16.6-16.4h-22.8v53.5h25c10.9,0,16.5-7.6,16.6-16.9
		C2114.2,314.4,2112.2,310.5,2107.8,308.3z M2085.8,294.8h8.5c5.5,0,5.5,8.6,0.1,8.6h-8.6V294.8z M2096.7,323.9h-10.9v-9.1h10.8
		C2102.1,314.8,2102.2,323.9,2096.7,323.9z"/>
	<path class="st0" d="M1317.2,308.8v-26.2c-4.6,0-9.3,0-13.9,0v53.5h4.9l26.9-26.3v26.3c4.7,0,9.4,0,14.1,0v-53.7h-5L1317.2,308.8z"
		/>
	<path class="st0" d="M1498.2,302h-16.5v-19.4c-4.6,0-9.4,0-13.9,0v53.5c4.6,0,9.3,0,13.9,0v-21.5h16.5v21.5c4.6,0,9.3,0,13.9,0
		v-53.5c-4.6,0-9.3,0-13.9,0V302z"/>
	<path class="st0" d="M1568.6,281.9l-24,52.2v2h13.3l3.1-6.7h21l3.1,6.7h13.3v-2l-24.1-52.2H1568.6z M1565.4,317.7l6-14.1l6.2,14.1
		H1565.4z"/>
</g>
</svg>
