<?xml version="1.0" encoding="utf-8"?>
<!-- Generator: Adobe Illustrator 23.1.0, SVG Export Plug-In . SVG Version: 6.00 Build 0)  -->
<svg version="1.1" id="Layer_1" xmlns="http://www.w3.org/2000/svg" xmlns:xlink="http://www.w3.org/1999/xlink" x="0px" y="0px"
	 viewBox="0 0 104 104" style="enable-background:new 0 0 104 104;" xml:space="preserve">
<style type="text/css">
	.st0{fill:#F7E800;}
</style>
<title>_</title>
<path class="st0" d="M78.3,32.2h-9.8v-4.8c0-2.2-1.7-3.9-3.9-3.9c-2.2,0-3.9,1.7-3.9,3.9c0,0,0,0,0,0v4.8H43.2v-4.8
	c0-2.2-1.7-3.9-3.9-3.9c-2.2,0-3.9,1.7-3.9,3.9v4.8h-9.8c-1.6,0-2.9,1.3-2.9,2.9v42.4c0,1.6,1.3,2.9,2.9,2.9h52.6
	c1.6,0,2.9-1.3,2.9-2.9V35.1C81.2,33.5,79.9,32.2,78.3,32.2z M50,45.3v7.8h-9.3v-7.8H50z M54,45.3h9.3v7.8H54L54,45.3z M36.9,45.3
	v7.8h-8.3v-7.8H36.9z M36.9,57v5.8h-8.3V57H36.9z M40.8,57h9.3v5.8h-9.3V57z M50.1,66.7v7.9h-9.3v-7.9H50.1z M54,66.7h9.3v7.9H54
	L54,66.7z M54,62.8V57h9.3v5.8L54,62.8z M67.1,57h8.3v5.8h-8.3V57z M67.1,53.1v-7.8h8.3v7.8H67.1z M28.6,66.7h8.3v7.9h-8.3V66.7z
	 M67.1,74.6v-7.9h8.3v7.9H67.1z"/>
</svg>
