<?xml version="1.0" encoding="utf-8"?>
<!-- Generator: Adobe Illustrator 23.1.0, SVG Export Plug-In . SVG Version: 6.00 Build 0)  -->
<svg version="1.1" id="Layer_1" xmlns="http://www.w3.org/2000/svg" xmlns:xlink="http://www.w3.org/1999/xlink" x="0px" y="0px"
	 viewBox="0 0 104 104" style="enable-background:new 0 0 104 104;" xml:space="preserve">
<style type="text/css">
	.st0{fill:#F7E800;}
</style>
<title>_</title>
<path class="st0" d="M52,23.9c-15.5,0-28.1,12.6-28.1,28.1S36.5,80.1,52,80.1S80.1,67.5,80.1,52S67.5,23.9,52,23.9L52,23.9z M52,73
	c-11.6,0-21-9.4-21-21s9.4-21,21-21s21,9.4,21,21l0,0C73,63.6,63.6,73,52,73z M69.5,52c0,1.9-1.6,3.5-3.5,3.5c0,0,0,0,0,0H52
	c-1.9,0-3.5-1.6-3.5-3.5V38c0.1-1.9,1.8-3.4,3.8-3.2c1.7,0.1,3.1,1.5,3.2,3.2v10.5H66C67.9,48.5,69.5,50,69.5,52
	C69.5,52,69.5,52,69.5,52z"/>
</svg>
